<svg width="960" height="540" viewBox="0 0 960 540" fill="none" xmlns="http://www.w3.org/2000/svg">
  <rect width="960" height="540" rx="36" fill="#F8FAFC"/>
  <rect x="48" y="44" width="864" height="452" rx="32" fill="white" stroke="#E2E8F0" stroke-width="3"/>
  <circle cx="240" cy="234" r="86" fill="#BAE6FD"/>
  <circle cx="214" cy="218" r="10" fill="#0F172A"/>
  <circle cx="265" cy="218" r="10" fill="#0F172A"/>
  <path d="M210 270C231 252 254 252 276 270" stroke="#0F172A" stroke-width="10" stroke-linecap="round"/>
  <path d="M174 172C214 129 292 142 318 190" stroke="#334155" stroke-width="22" stroke-linecap="round"/>
  <rect x="408" y="116" width="376" height="220" rx="28" fill="#F1F5F9" stroke="#CBD5E1" stroke-width="3"/>
  <rect x="448" y="156" width="124" height="16" rx="8" fill="#38BDF8"/>
  <rect x="448" y="202" width="268" height="16" rx="8" fill="#94A3B8"/>
  <rect x="448" y="238" width="218" height="16" rx="8" fill="#CBD5E1"/>
  <rect x="448" y="274" width="174" height="16" rx="8" fill="#FCA5A5"/>
  <rect x="502" y="368" width="256" height="70" rx="22" fill="#0F172A"/>
  <text x="630" y="413" text-anchor="middle" font-family="Arial, sans-serif" font-size="26" font-weight="800" fill="white">VERIFY NOW?</text>
  <text x="240" y="392" text-anchor="middle" font-family="Arial, sans-serif" font-size="30" font-weight="800" fill="#0F172A">standup can wait</text>
  <text x="240" y="430" text-anchor="middle" font-family="Arial, sans-serif" font-size="22" font-weight="700" fill="#64748B">this link cannot</text>
</svg>
